<svg class="icon" viewBox="0 0 1082 1024" xmlns="http://www.w3.org/2000/svg" width="33.813" height="32"><defs><style/></defs><path d="M533.767 0l158.995 304.74s-278.24 164.672-442.914 444.805l13.25-92.746L.076 389.915l367.201-41.641z"/><path d="M232.813 819.351s384.237-577.074 849.94-433.222l-60.57 66.248s-253.634-24.606-388.022 71.926c0 0-264.991 132.496-401.272 310.418z"/><path d="M902.861 564.052l-81.39 79.497s-278.24 11.357-588.658 240.384c0 0 300.954-359.857 670.048-319.881z"/><path d="M223.35 921.79s321.774-217.672 611.37-179.816L868.792 1024 546.108 849.863l-341.61 173.91z"/></svg>